<svg id="Layer_1" height="512" viewBox="0 0 128 128" width="512" xmlns="http://www.w3.org/2000/svg" data-name="Layer 1"><path d="m115 65.75a1.75 1.75 0 0 0 1.75-1.75v-13.116a1.75 1.75 0 0 0 -1.75-1.75h-18.65v-11.366a1.75 1.75 0 0 0 -1.75-1.75h-18.65v-11.367a1.75 1.75 0 0 0 -1.75-1.751h-40.8a1.75 1.75 0 0 0 -1.75 1.75v11.368h-18.65a1.75 1.75 0 0 0 -1.75 1.75v13.116a1.75 1.75 0 0 0 1.75 1.75h18.65v11.366a1.75 1.75 0 0 0 1.75 1.75h18.65v9.616h-18.65a1.75 1.75 0 0 0 -1.75 1.75v11.366h-18.65a1.75 1.75 0 0 0 -1.75 1.75v13.116a1.75 1.75 0 0 0 1.75 1.752h81.6a1.75 1.75 0 0 0 1.75-1.75v-11.368h18.65a1.75 1.75 0 0 0 1.75-1.75v-13.116a1.75 1.75 0 0 0 -1.75-1.75h-18.65v-9.616zm-1.75-3.5h-37.3v-9.616h37.3zm-20.4-13.116h-37.3v-9.616h37.3zm-57.7-22.734h37.3v9.616h-37.3zm-20.4 13.118h37.3v9.616h-37.3zm20.4 13.116h37.3v9.616h-37.3zm0 26.232h37.3v9.616h-37.3zm-20.4 13.116h37.3v9.618h-37.3zm78.1 9.616h-37.3v-9.616h37.3zm20.4-13.116h-37.3v-9.616h37.3zm-20.4-13.116h-37.3v-9.616h37.3z"/></svg>