<?xml version="1.0" encoding="iso-8859-1"?>
<!-- Generator: Adobe Illustrator 18.0.0, SVG Export Plug-In . SVG Version: 6.00 Build 0)  -->
<!DOCTYPE svg PUBLIC "-//W3C//DTD SVG 1.1//EN" "http://www.w3.org/Graphics/SVG/1.1/DTD/svg11.dtd">
<svg version="1.1" id="Capa_1" xmlns="http://www.w3.org/2000/svg" xmlns:xlink="http://www.w3.org/1999/xlink" x="0px" y="0px"
	 viewBox="0 0 493.347 493.347" style="enable-background:new 0 0 493.347 493.347;" xml:space="preserve">
<path id="XMLID_136_" d="M476.369,281.14c-14.073-7.277-33.212-2.657-40.598,10.995c-0.71,1.311-28.257,54.124-28.257,54.124
	H264.169v-55.495c48.241,0,96.5,0,144.74,0c-62.65-53.506-62.65-150.351,0-203.865c-48.24,0-96.499,0-144.74,0V56.712
	c0-9.665-7.838-17.494-17.502-17.494c-9.665,0-17.502,7.829-17.502,17.494V86.9c-32.584,0-65.166,0-97.75,0
	c-62.65,53.514-62.65,150.358,0,203.865c32.584,0,65.166,0,97.75,0v55.495H85.819c0,0-26.795-51.368-28.273-54.156
	c-7.275-13.716-26.589-18.168-40.564-10.972C1.644,289.041-4.43,307.97,3.454,323.371c5.418,10.474,16.107,16.981,27.902,16.981
	c4.971,0,9.922-1.21,14.361-3.495c1.556-0.801,2.932-1.779,4.279-2.788c0,0,25.822,48.678,29.233,55.029
	c21.92,40.81,66.929,65.03,114.05,65.03h106.773c47.119,0,91.764-24.146,114.049-65.022c2.12-3.889,29.25-55.037,29.25-55.037
	c1.348,1.009,2.725,1.996,4.279,2.796c4.424,2.276,9.391,3.486,14.361,3.486c11.795,0,22.468-6.508,27.886-16.996
	C497.78,307.993,491.723,289.057,476.369,281.14z M33.681,313.539c-2.146,1.082-5.32,0.898-6.875-2.171
	c-1.298-2.516-0.305-5.609,2.211-6.908c0.723-0.375,1.506-0.569,2.309-0.569c1.49,0,3.479,0.73,4.521,2.732l0.029,0.057
	C37.144,309.18,36.166,312.257,33.681,313.539z M466.543,311.335c-1.6,3.158-4.823,3.254-6.874,2.212
	c-2.485-1.29-3.479-4.358-2.195-6.867l0.029-0.049c1.043-2.011,3.014-2.741,4.52-2.741c0.805,0,1.588,0.194,2.325,0.569
	C466.849,305.75,467.827,308.844,466.543,311.335z"/>
<g>
</g>
<g>
</g>
<g>
</g>
<g>
</g>
<g>
</g>
<g>
</g>
<g>
</g>
<g>
</g>
<g>
</g>
<g>
</g>
<g>
</g>
<g>
</g>
<g>
</g>
<g>
</g>
<g>
</g>
</svg>
