<?xml version="1.0" encoding="iso-8859-1"?>
<!-- Generator: Adobe Illustrator 19.0.0, SVG Export Plug-In . SVG Version: 6.00 Build 0)  -->
<svg version="1.1" id="Layer_1" xmlns="http://www.w3.org/2000/svg" xmlns:xlink="http://www.w3.org/1999/xlink" x="0px" y="0px"
	 viewBox="0 0 511.998 511.998" style="enable-background:new 0 0 511.998 511.998;" xml:space="preserve">
<g>
	<g>
		<path d="M410.061,332.085c0-0.031,0.016-0.047,0.031-0.062c6.281-10.391,11.781-21.297,16.453-32.656
			c5.188,1.766,10.156,2.562,14.891,2.562c45.719,0,70.562-74.055,70.562-74.055c-4.875-0.406-9.516-0.594-13.906-0.594
			c-25.406,0-43.203,6.344-55.656,15.086c2.234-14.016,3.438-28.469,3.578-43.203c50.625-8.062,37.797-90.984,37.797-90.984
			c-21.25,8.852-34.719,19.633-43.062,30.641c-2.859-15.664-6.031-26.898-7.156-30.656c12.328-44.047-59.344-70.375-59.344-70.375
			c-6.328,56.961,22.844,75.727,40.297,81.82c1.578,5.383,6.984,25.188,9.203,52.742c-20.062-22.531-50.484-36.578-50.484-36.578
			c-14.875,76.844,29.406,99.508,47.734,105.5c-0.469,2.75-0.969,5.469-1.516,8.172c-3.297,16.172-8.172,31.609-14.531,46.203
			c-6.984-31.751-29.953-61.352-29.953-61.352c-49.406,62.414-22,104.133-7.531,119.492c-11.281,12.562-24.203,24.078-38.703,34.531
			c7.625-34.109-6.141-76.156-6.141-76.156c-64.469,40.234-56.75,86.281-48.562,107.234c-5.844,2.625-11.875,5.109-18.062,7.5
			c-7.422-2.859-14.609-5.891-21.547-9.078c6.094-22.016,8.469-67.422-57.922-101.203c0,0-7.953,34.016-2.266,64.938
			c-10.922-8.594-20.828-17.859-29.734-27.766c14.468-15.359,41.859-57.078-7.532-119.492c0,0-22.969,29.602-29.953,61.336
			c-6.297-14.422-11.125-29.672-14.422-45.641c-0.594-2.875-1.125-5.781-1.625-8.719c18.344-5.992,62.609-28.664,47.75-105.5
			c0,0-30.438,14.047-50.5,36.578c2.219-27.43,7.625-47.328,9.219-52.742c17.453-6.102,46.609-24.859,40.281-81.82
			c0,0-71.75,26.352-59.328,70.438c-1.141,3.828-4.312,15.023-7.156,30.609c-8.359-11.016-21.828-21.805-43.078-30.656
			c0,0-12.828,82.922,37.797,90.984c0.141,14.734,1.344,29.188,3.578,43.203c-12.453-8.742-30.25-15.086-55.656-15.086
			c-4.391,0-9.031,0.188-13.906,0.594c0,0,24.844,74.055,70.562,74.055c4.734,0,9.703-0.797,14.891-2.562
			c4.672,11.359,10.172,22.266,16.453,32.656c0.016,0.016,0.031,0.031,0.031,0.062c-7.141-1.812-15.078-2.844-23.875-2.844
			c-15.781,0-34.344,3.344-56.078,11.688c0,0,45.172,64.891,93.75,64.891c12.266,0,24.734-4.141,36.766-14.5
			c20.812,17.828,45.234,33.156,73.188,45.969c-21.328,6.453-44.312,11.75-68.938,15.891l3.531,21.031
			c35.016-5.875,66.938-14.062,95.719-24.531c28.781,10.469,60.703,18.656,95.719,24.531l3.531-21.031
			c-24.625-4.141-47.609-9.438-68.938-15.891c27.953-12.812,52.375-28.141,73.188-45.969c12.016,10.359,24.5,14.5,36.766,14.5
			c48.578,0,93.75-64.891,93.75-64.891c-21.734-8.344-40.297-11.688-56.078-11.688C425.14,329.241,417.202,330.272,410.061,332.085z
			 M452.296,161.171c2.234-5.516,5.828-10.664,10.734-15.422c-1.453,11.781-4.672,20.961-9.281,26.344
			c-1.062,1.234-2.391,2.555-4.266,3.664C449.499,171.358,450.202,166.335,452.296,161.171z M443.702,270.711
			c7.453-10.423,18.859-17.189,34.031-20.251c-0.719,1.188-1.453,2.344-2.203,3.516c-5.625,8.609-11.422,15.281-17.266,19.859
			c-5.828,4.562-11.328,6.766-16.828,6.766c-1,0-2.031-0.078-3.078-0.234C439.639,277.305,441.374,273.976,443.702,270.711z
			 M404.64,87.804c-2.891-3.586-5.156-7.82-6.797-12.688c7.938,6.188,13.188,12.477,15.062,18.219
			c0.234,0.703,0.438,1.461,0.594,2.297C410.452,93.726,407.374,91.179,404.64,87.804z M418.749,217.187
			c-7.125-3.836-12.953-8.992-17.312-15.352c-5.5-8.016-8.703-17.969-9.609-29.773c15.047,11.391,24.641,23.258,27.125,33.539
			C419.655,208.468,420.124,212.296,418.749,217.187z M93.03,205.647c2.469-10.281,12.078-22.188,27.141-33.586
			c-0.906,11.797-4.109,21.758-9.609,29.773c-4.359,6.359-10.188,11.516-17.312,15.352C91.874,212.319,92.343,208.499,93.03,205.647
			z M99.077,93.374c1.875-5.742,7.109-12.055,15.062-18.258c-1.625,4.867-3.891,9.102-6.781,12.68
			c-2.734,3.383-5.812,5.93-8.859,7.836C98.655,94.811,98.858,94.061,99.077,93.374z M58.28,172.124
			c-4.625-5.367-7.844-14.57-9.312-26.375c4.906,4.758,8.5,9.906,10.734,15.422c2.094,5.164,2.797,10.188,2.812,14.586
			C60.655,174.655,59.327,173.351,58.28,172.124z M70.561,280.601c-5.5,0-11-2.203-16.828-6.766
			c-5.844-4.578-11.641-11.25-17.266-19.859c-0.75-1.172-1.484-2.344-2.203-3.516c15.172,3.062,26.578,9.828,34.031,20.25
			c2.328,3.266,4.047,6.594,5.344,9.656C72.593,280.522,71.561,280.601,70.561,280.601z M115.733,384.491
			c-14.203,0-31.484-9.062-49.984-26.188c-2.172-2.016-4.234-4.031-6.188-6.016c6.469-1.141,12.641-1.719,18.5-1.719
			c19.656,0,35.906,6.484,48.297,19.281c2.953,3.062,5.391,6.172,7.328,9.016C127.937,382.632,121.983,384.491,115.733,384.491z
			 M143.531,309.147c-1.047,8.469-4.234,16.469-9.453,23.812c-4.328-4.266-5.922-8.5-6.75-11.797
			c-2.751-11.124,0.64-27.39,9.593-45.827c0.109-0.234,0.219-0.469,0.344-0.719C142.765,286.819,144.874,298.366,143.531,309.147z
			 M214.999,407.382c-3.969-1.469-7.844-3.922-11.047-7.922c-8.672-10.891-10.734-29.5-10.328-46.281
			c10.047,8.766,16.75,18.344,20.016,28.656C216.218,389.96,216.671,398.538,214.999,407.382z M302.484,397.335
			c-2.844,4.281-6.516,7.062-10.359,8.875c-1.876-6.672-3.064-15.484-1.032-25.141c2.297-10.812,8.203-21.172,17.672-31
			C310.671,366.835,310.234,385.678,302.484,397.335z M368.468,309.148c-1.344-10.782,0.765-22.313,6.265-34.532l0.016,0.031
			c9.188,18.688,12.703,35.188,9.922,46.469c-0.812,3.312-2.406,7.562-6.75,11.844C372.702,325.616,369.515,317.616,368.468,309.148
			z M446.796,357.788c-8.781,8.203-17.422,14.672-25.656,19.203c-9.062,4.969-17.422,7.5-24.875,7.5
			c-6.25,0-12.203-1.859-17.953-5.625c1.938-2.844,4.359-5.953,7.328-9.016c12.391-12.797,28.641-19.266,48.297-19.266
			c5.859,0,12.031,0.562,18.5,1.703C450.655,354.116,448.765,355.96,446.796,357.788z"/>
	</g>
</g>
<g>
</g>
<g>
</g>
<g>
</g>
<g>
</g>
<g>
</g>
<g>
</g>
<g>
</g>
<g>
</g>
<g>
</g>
<g>
</g>
<g>
</g>
<g>
</g>
<g>
</g>
<g>
</g>
<g>
</g>
</svg>
