<svg height="494pt" viewBox="0 -25 494 494" width="494pt" xmlns="http://www.w3.org/2000/svg"><path d="m245.671875.0351562c-87.800781 2.1406248-157.960937 73.7539058-158.300781 161.5820318-.042969 49.601562 21.976562 95.589843 60.570312 126.183593 19.160156 15.199219 30.058594 38.261719 30.058594 63.296875v85.101563c.058594 3.980469 3.210938 7.226562 7.191406 7.398437h127.871094c3.863281 0 6.9375-3.535156 6.9375-7.398437v-85.015625c.042969-24.746094 11.292969-48.136719 30.59375-63.617188 53.871094-43.421875 74.140625-116.308594 50.421875-181.308594-23.71875-64.996093-86.167969-107.699218-155.34375-106.2226558zm-53.671875 429.5624998v-53h114v53zm57.277344-212.472656-.035156.042969-2.125 2.308593-2.160157-2.351562c-24.867187-26.605469-24.898437-69.390625-.054687-95.371094.035156-.035156.0625-.066406.09375-.101562l2.121094-2.304688 2.160156 2.34375c24.585937 26.324219 24.585937 69.136719 0 95.433594zm92.496094 59.566406c-22.582032 18.136719-35.738282 45.527344-35.773438 74.492188v11.414062h-52v-67.226562l5.558594-.230469c43.667968-1.472656 79.992187-37.808594 81-81.011719l.441406-10.667968c.082031-1.953126-.660156-3.855469-2.042969-5.238282-1.386719-1.386718-3.285156-2.128906-5.242187-2.046875l-10.679688.445313c-28.875.984375-54.664062 17.550781-69.039062 41.300781v-5.246094l5.527344-6.003906c29.488281-31.574219 29.484374-82.945313.015624-114.492187l-7.273437-7.90625c-1.324219-1.441407-3.191406-2.257813-5.148437-2.257813-1.957032 0-3.824219.816406-5.152344 2.257813l-7.226563 7.855468c-29.835937 31.265625-29.84375 82.640625-.046875 114.519532l5.308594 5.765624v5.519532c-14.375-23.761719-40.148438-40.328125-68.984375-41.3125l-10.734375-.445313c-1.957031-.078125-3.855469.664063-5.238281 2.046875-1.382813 1.382813-2.125 3.285156-2.042969 5.238282l.445312 10.667968c1.007813 43.199219 37.332032 79.539063 80.945313 81.011719l5.613281.230469v67.226562h-48.003906v-11.5c0-29.332031-12.828125-56.398437-35.367188-74.265625-42.496093-34.128906-62.742187-88.890625-52.667968-142.457031 10.074218-53.5625 48.835937-97.226562 100.828125-113.582031 51.992187-16.355469 108.765625-2.746094 147.695312 35.40625 30.164063 29.503906 46.253907 70.511719 44.207031 112.65625-2.050781 42.148437-22.039062 81.402343-54.921874 107.84375zm-85.875 4.589844.132812-3.1875c1.214844-35.980469 31.488281-66.253906 67.539062-67.480469l3.128907-.132812-.128907 3.132812v.132813c-.808593 35.9375-31.078124 66.175781-67.535156 67.402344zm-17.796876 0-3.191406-.132812c-36.398437-1.226563-66.667968-31.464844-67.476562-67.398438 0-.046875 0-.089844 0-.136719l-.128906-3.128906 3.183593.132813c36 1.226562 66.269531 31.5 67.484375 67.480468v.054688zm0 0"/><path d="m487 154.597656h-46c-3.867188 0-7 3.136719-7 7 0 3.867188 3.132812 7 7 7h46c3.867188 0 7-3.132812 7-7 0-3.863281-3.132812-7-7-7zm0 0"/><path d="m469.777344 79.363281-38.640625 10.441407c-2.429688.640624-4.328125 2.53125-4.980469 4.957031-.648438 2.425781.050781 5.015625 1.832031 6.785156 1.785157 1.765625 4.378907 2.445313 6.796875 1.773437l38.644532-10.445312c2.417968-.648438 4.304687-2.539062 4.949218-4.957031.640625-2.421875-.054687-5-1.828125-6.765625-1.777343-1.761719-4.359375-2.445313-6.773437-1.789063zm0 0"/><path d="m473.429688 224.273438-38.644532-10.441407c-2.417968-.671875-5.011718.007813-6.796875 1.773438-1.78125 1.769531-2.480469 4.355469-1.832031 6.78125.652344 2.425781 2.550781 4.320312 4.980469 4.960937l38.640625 10.441406c2.414062.65625 4.996094-.027343 6.773437-1.792968 1.773438-1.765625 2.46875-4.34375 1.828125-6.761719-.644531-2.417969-2.53125-4.3125-4.949218-4.960937zm0 0"/><path d="m60 161.597656c0-3.863281-3.132812-7-7-7h-46c-3.867188 0-7 3.136719-7 7 0 3.867188 3.132812 7 7 7h46c3.867188 0 7-3.132812 7-7zm0 0"/><path d="m61.429688 213.832031-38.644532 10.441407c-2.417968.648437-4.304687 2.542968-4.949218 4.960937-.640626 2.417969.054687 4.996094 1.828124 6.761719 1.777344 1.765625 4.359376 2.449218 6.773438 1.792968l38.640625-10.441406c2.429687-.640625 4.328125-2.535156 4.980469-4.960937.648437-2.425781-.050782-5.011719-1.832032-6.78125-1.785156-1.765625-4.378906-2.445313-6.796874-1.773438zm0 0"/><path d="m65.078125 89.804688-38.640625-10.441407c-3.730469-1.003906-7.566406 1.203125-8.574219 4.933594-1.007812 3.726563 1.195313 7.566406 4.921875 8.578125l38.644532 10.445312c2.417968.671876 5.011718-.007812 6.796874-1.773437 1.78125-1.769531 2.480469-4.359375 1.832032-6.785156-.652344-2.425781-2.550782-4.316407-4.980469-4.957031zm0 0"/></svg>